<?xml version="1.0" encoding="UTF-8" standalone="no"?>
<!DOCTYPE svg PUBLIC "-//W3C//DTD SVG 1.1//EN" "http://www.w3.org/Graphics/SVG/1.1/DTD/svg11.dtd">
<svg version="1.1" xmlns="http://www.w3.org/2000/svg" xmlns:xlink="http://www.w3.org/1999/xlink" preserveAspectRatio="xMidYMid meet" viewBox="0 0 640 640" width="640" height="640"><defs><path d="M320.01 366.87C244.17 291 202.03 248.85 193.61 240.42C187.58 234.39 177.83 234.39 171.8 240.42C165.79 246.44 165.79 256.21 171.8 262.23C180.96 271.39 226.72 317.17 309.11 399.58L309.11 399.58C309.11 399.58 309.11 399.58 309.11 399.58C315.12 405.61 324.88 405.61 330.89 399.58C344.62 385.85 454.47 275.97 468.2 262.24C474.21 256.21 474.21 246.43 468.2 240.4C462.2 234.4 452.44 234.4 446.42 240.43C429.57 257.29 387.43 299.44 320.01 366.87Z" id="b28vHkqnkR"></path></defs><g><g><g><use xlink:href="#b28vHkqnkR" opacity="1" fill="#3c6d85" fill-opacity="1"></use><g><use xlink:href="#b28vHkqnkR" opacity="1" fill-opacity="0" stroke="#000000" stroke-width="1" stroke-opacity="0"></use></g></g></g></g></svg>