<svg id="Capa_1" enable-background="new 0 0 510 510" height="512" viewBox="0 0 510 510" width="512" xmlns="http://www.w3.org/2000/svg" fill="#ffffff"><path d="m171.454 157.127c5.687-5.69 101.48-101.531 105.427-105.479 12.002-12.008 31.436-12.042 43.472 0l8.592 8.601c11.039-11.045 10.708-10.713 21.225-21.236l-8.582-8.601c-23.758-23.77-62.19-23.765-85.943 0l-105.416 105.469c-5.864 5.867-5.864 15.379 0 21.246 5.865 5.847 15.337 5.871 21.225 0z"/><path d="m84.577 347.22c-28.492 28.506-47.915 65.526-54.49 111.437v.01c-22.034 22.045-15.69 15.698-25.689 25.702-5.864 5.857-5.864 15.369 0 21.236 5.862 5.864 15.371 5.857 21.225 0 3.149-3.151 23.237-23.249 25.709-25.722 45.539-6.448 82.771-25.912 111.351-54.517l112.682-112.738-78.107-78.146z"/><path d="m218.484 213.236.01.01 78.107 78.146c118.002-118.061 91.018-91.066 162.008-162.079l-78.117-78.156c-17.574 17.564-52.588 52.617-162.008 162.079z"/><path d="m493.754 15.854c-21.536-21.466-56.901-21.086-78.827.851l-13.21 13.216 78.117 78.146 13.98-13.997c21.602-21.612 21.581-56.627-.06-78.216z"/></svg>